<?xml version="1.0" encoding="utf-8"?>
<svg viewBox="0 0 1000 786" xmlns="http://www.w3.org/2000/svg">
  <g transform="matrix(0.05, 0, 0, -0.05, 240.612183, 921.010193)" fill="red" stroke="none">
    <path d="M 5994 15677 C 5939 15628 5868 15466 5201 13862 C 4827 12962 4142 11290 3870 10610 C 3656 10076 3687 10111 3541 10245 C 3117 10639 2449 10631 2045 10228 C 1425 9610 1911 8638 2839 8640 C 3356 8641 3730 8968 3881 9550 C 3965 9876 4190 10524 4380 10990 C 4488 11254 4756 11911 4976 12450 C 5540 13831 5516 13779 5605 13825 C 5749 13900 5750 13900 6280 13320 C 6642 12924 6672 12863 6604 12654 C 6534 12436 6812 12295 6900 12505 C 7342 13561 7342 13555 6656 14305 C 6084 14930 6053 15004 6211 15372 C 6291 15558 6293 15609 6220 15663 C 6135 15725 6054 15730 5994 15677 Z" style="fill: rgb(237, 145, 42);"/>
    <path d="M 1390 14358 C 1049 14309 753 14166 503 13931 C -353 13127 -36 11589 1060 11228 C 1230 11171 3794 11159 3813 11214 C 3820 11234 3897 11429 3983 11648 C 4069 11867 4140 12049 4140 12052 C 4140 12056 3530 12061 2785 12064 L 1430 12070 L 1305 12128 C 775 12373 806 13119 1356 13377 L 1470 13430 L 3089 13435 L 4709 13440 L 4894 13893 C 4996 14142 5080 14354 5080 14363 C 5080 14385 1546 14380 1390 14358 Z" style="fill: rgb(255 255 255);"/>
    <path d="M 5109 12036 C 5104 12022 5025 11824 4933 11596 L 4767 11181 L 6169 11176 L 7570 11170 L 7692 11113 C 8274 10845 8170 9999 7535 9828 C 7449 9805 7152 9800 5861 9801 L 4292 9802 L 4106 9349 C 4004 9099 3920 8887 3920 8877 C 3920 8830 7617 8867 7790 8916 C 8281 9054 8643 9358 8850 9807 C 9243 10657 8801 11728 7940 12012 C 7796 12060 5127 12082 5109 12036 Z" style="fill: rgb(255 255 255);"/>
  </g>
</svg>